# Blender 3.5.0
# www.blender.org
mtllib enemyBullet.mtl
o Cube
v -0.500000 0.500000 0.500000
v -0.500000 -0.500000 0.500000
v -0.500000 0.500000 -0.500000
v -0.500000 -0.500000 -0.500000
v 0.500000 0.500000 0.500000
v 0.500000 -0.500000 0.500000
v 0.500000 0.500000 -0.500000
v 0.500000 -0.500000 -0.500000
v 0.609568 -0.609568 0.000000
v -0.000000 -0.609568 0.609568
v -0.609568 0.000000 0.609568
v 0.609568 -0.000000 -0.609568
v -0.609568 0.000000 -0.609568
v 0.609568 -0.000000 0.609568
v 0.000000 0.609568 -0.609568
v -0.609568 0.609568 -0.000000
v 0.000000 -0.609568 -0.609568
v 0.609568 0.609568 0.000000
v -0.000000 0.609568 0.609568
v -0.609568 -0.609568 -0.000000
v 0.000000 0.839506 0.000000
v -0.000000 0.000000 -0.839506
v 0.839506 0.000000 0.000000
v 0.000000 -0.839506 -0.000000
v -0.839506 0.000000 0.000000
v -0.000000 0.000000 0.839506
vn -0.3397 0.9004 0.2717
vn 0.2717 0.9004 0.3397
vn 0.2717 0.9004 -0.3397
vn -0.3397 0.9004 -0.2717
vn -0.2717 -0.3397 -0.9004
vn -0.3397 0.2717 -0.9004
vn 0.3397 0.2717 -0.9004
vn 0.2717 -0.3397 -0.9004
vn 0.9004 -0.3397 -0.2717
vn 0.9004 0.2717 -0.3397
vn 0.9004 0.2717 0.3397
vn 0.9004 -0.3397 0.2717
vn 0.3397 -0.9004 0.2717
vn -0.2717 -0.9004 0.3397
vn -0.2717 -0.9004 -0.3397
vn 0.3397 -0.9004 -0.2717
vn -0.9004 -0.3397 0.2717
vn -0.9004 0.2717 0.3397
vn -0.9004 0.2717 -0.3397
vn -0.9004 -0.3397 -0.2717
vn 0.2717 -0.3397 0.9004
vn 0.3397 0.2717 0.9004
vn -0.3397 0.2717 0.9004
vn -0.2717 -0.3397 0.9004
vn -0.2717 0.9004 0.3397
vn 0.3397 0.9004 0.2717
vn 0.3397 0.9004 -0.2717
vn -0.2717 0.9004 -0.3397
vn -0.3397 -0.2717 -0.9004
vn -0.2717 0.3397 -0.9004
vn 0.2717 0.3397 -0.9004
vn 0.3397 -0.2717 -0.9004
vn 0.9004 -0.2717 -0.3397
vn 0.9004 0.3397 -0.2717
vn 0.9004 0.3397 0.2717
vn 0.9004 -0.2717 0.3397
vn 0.2717 -0.9004 0.3397
vn -0.3397 -0.9004 0.2717
vn -0.3397 -0.9004 -0.2717
vn 0.2717 -0.9004 -0.3397
vn -0.9004 -0.2717 0.3397
vn -0.9004 0.3397 0.2717
vn -0.9004 0.3397 -0.2717
vn -0.9004 -0.2717 -0.3397
vn 0.3397 -0.2717 0.9004
vn 0.2717 0.3397 0.9004
vn -0.2717 0.3397 0.9004
vn -0.3397 -0.2717 0.9004
vt 0.625000 0.500000
vt 0.375000 0.500000
vt 0.625000 0.750000
vt 0.375000 0.750000
vt 0.875000 0.500000
vt 0.625000 0.250000
vt 0.125000 0.500000
vt 0.375000 0.250000
vt 0.875000 0.750000
vt 0.625000 1.000000
vt 0.625000 0.000000
vt 0.375000 1.000000
vt 0.375000 0.000000
vt 0.125000 0.750000
vt 0.375000 0.125000
vt 0.125000 0.625000
vt 0.375000 0.375000
vt 0.250000 0.500000
vt 0.500000 0.500000
vt 0.500000 1.000000
vt 0.500000 0.000000
vt 0.500000 0.750000
vt 0.500000 0.250000
vt 0.750000 0.750000
vt 0.625000 0.875000
vt 0.625000 0.625000
vt 0.375000 0.875000
vt 0.250000 0.750000
vt 0.875000 0.625000
vt 0.625000 0.125000
vt 0.750000 0.500000
vt 0.625000 0.375000
vt 0.375000 0.625000
vt 0.750000 0.625000
vt 0.500000 0.875000
vt 0.500000 0.125000
vt 0.250000 0.625000
vt 0.500000 0.625000
vt 0.500000 0.375000
s 0
usemtl Material
f 1/1/1 21/34/1 16/26/1
f 5/5/2 21/34/2 19/31/2
f 21/34/3 7/9/3 15/24/3
f 21/34/4 3/3/4 16/26/4
f 4/4/5 22/35/5 17/27/5
f 3/3/6 22/35/6 13/22/6
f 22/35/7 7/10/7 12/20/7
f 22/35/8 8/12/8 17/27/8
f 8/13/9 23/36/9 9/15/9
f 7/11/10 23/36/10 12/21/10
f 23/36/11 5/6/11 14/23/11
f 23/36/12 6/8/12 9/15/12
f 6/7/13 24/37/13 9/16/13
f 2/2/14 24/37/14 10/18/14
f 24/37/15 4/4/15 17/28/15
f 24/37/16 8/14/16 9/16/16
f 2/2/17 25/38/17 20/33/17
f 1/1/18 25/38/18 11/19/18
f 25/38/19 3/3/19 13/22/19
f 25/38/20 4/4/20 20/33/20
f 6/8/21 26/39/21 10/17/21
f 5/6/22 26/39/22 14/23/22
f 26/39/23 1/1/23 11/19/23
f 26/39/24 2/2/24 10/17/24
f 1/1/25 19/31/25 21/34/25
f 5/5/26 18/29/26 21/34/26
f 21/34/27 18/29/27 7/9/27
f 21/34/28 15/24/28 3/3/28
f 4/4/29 13/22/29 22/35/29
f 3/3/30 15/25/30 22/35/30
f 22/35/31 15/25/31 7/10/31
f 22/35/32 12/20/32 8/12/32
f 8/13/33 12/21/33 23/36/33
f 7/11/34 18/30/34 23/36/34
f 23/36/35 18/30/35 5/6/35
f 23/36/36 14/23/36 6/8/36
f 6/7/37 10/18/37 24/37/37
f 2/2/38 20/33/38 24/37/38
f 24/37/39 20/33/39 4/4/39
f 24/37/40 17/28/40 8/14/40
f 2/2/41 11/19/41 25/38/41
f 1/1/42 16/26/42 25/38/42
f 25/38/43 16/26/43 3/3/43
f 25/38/44 13/22/44 4/4/44
f 6/8/45 14/23/45 26/39/45
f 5/6/46 19/32/46 26/39/46
f 26/39/47 19/32/47 1/1/47
f 26/39/48 11/19/48 2/2/48
