# Blender 3.5.0
# www.blender.org
mtllib player.mtl
o 立方体
v -0.519063 1.908809 -1.160000
v -0.519063 2.746868 -1.160000
v -0.519063 1.908809 1.160000
v -0.519063 3.008809 1.160000
v 0.000000 1.908809 1.160000
v 0.000000 3.008809 1.160000
v 0.000000 1.908809 -1.160000
v 0.000000 2.746868 -1.160000
v -0.259532 3.008809 1.160000
v -0.259532 1.908809 -1.160000
v -0.259532 1.908809 1.160000
v -0.259532 2.746868 -1.160000
v -0.519063 1.908809 2.317843
v -0.519063 2.424825 2.317843
v 0.000000 1.908809 2.317843
v 0.000000 2.424825 2.317843
v -0.259532 2.424825 2.317843
v -0.259532 1.908809 2.317843
v -1.660748 2.477336 -1.160000
v -1.660748 2.746868 -1.160000
v -1.660748 2.477336 1.160000
v -1.660748 2.746868 1.160000
v -0.519063 2.076575 -3.077897
v -0.519063 2.460877 -3.077897
v 0.000000 2.076575 -3.826221
v 0.000000 2.460877 -3.077897
v -0.259532 2.076575 -3.826221
v -0.259532 2.460877 -3.077897
v -0.519063 1.908809 3.475987
v -0.519063 2.467761 3.475987
v 0.000000 1.908809 3.475987
v 0.000000 2.467761 3.475987
v -0.259532 2.467761 3.475987
v -0.259532 1.908809 3.475987
v -2.988006 2.602768 -1.160000
v -2.988006 2.746868 -1.160000
v -2.988006 2.602768 1.160000
v -2.988006 2.746868 1.160000
v -0.519063 2.076575 -4.831478
v -0.519063 2.285784 -4.831478
v 0.000000 2.076575 -4.831478
v 0.000000 2.285784 -4.831478
v -0.259532 2.076575 -4.831478
v -0.259532 2.285784 -4.831478
v 0.000000 2.285784 -4.543609
v -0.259532 2.076575 -4.328850
v 0.000000 2.076575 -4.328850
v -0.519063 2.285784 -4.543609
v -0.519063 2.076575 -4.328850
v -0.259532 2.285784 -4.543609
v 0.000000 2.680771 -4.077536
v 0.000000 2.076575 -4.077536
v -0.519063 2.076575 -4.077536
v -0.259532 2.076575 -4.077536
v -0.519063 2.680771 -4.077536
v -0.259532 2.680771 -4.077536
v 0.519063 1.908809 -1.160000
v 0.519063 2.746868 -1.160000
v 0.519063 1.908809 1.160000
v 0.519063 3.008809 1.160000
v 0.259532 3.008809 1.160000
v 0.259532 1.908809 -1.160000
v 0.259532 1.908809 1.160000
v 0.259532 2.746868 -1.160000
v 0.519063 1.908809 2.317843
v 0.519063 2.424825 2.317843
v 0.259532 2.424825 2.317843
v 0.259532 1.908809 2.317843
v 1.660748 2.477336 -1.160000
v 1.660748 2.746868 -1.160000
v 1.660748 2.477336 1.160000
v 1.660748 2.746868 1.160000
v 0.519063 2.076575 -3.077897
v 0.519063 2.460877 -3.077897
v 0.259532 2.076575 -3.826221
v 0.259532 2.460877 -3.077897
v 0.519063 1.908809 3.475987
v 0.519063 2.467761 3.475987
v 0.259532 2.467761 3.475987
v 0.259532 1.908809 3.475987
v 2.988006 2.602768 -1.160000
v 2.988006 2.746868 -1.160000
v 2.988006 2.602768 1.160000
v 2.988006 2.746868 1.160000
v 0.519063 2.076575 -4.831478
v 0.519063 2.285784 -4.831478
v 0.259532 2.076575 -4.831478
v 0.259532 2.285784 -4.831478
v 0.259532 2.076575 -4.328850
v 0.519063 2.285784 -4.543609
v 0.519063 2.076575 -4.328850
v 0.259532 2.285784 -4.543609
v 0.519063 2.076575 -4.077536
v 0.259532 2.076575 -4.077536
v 0.519063 2.680771 -4.077536
v 0.259532 2.680771 -4.077536
vn -0.0000 -0.0000 -1.0000
vn -0.1782 -0.9821 -0.0618
vn -0.0000 -1.0000 -0.0000
vn -0.0000 0.9937 -0.1122
vn -0.0000 0.9891 -0.1475
vn -1.0000 -0.0000 -0.0000
vn -0.0000 0.9993 -0.0370
vn -0.0000 0.8929 0.4503
vn -0.0000 1.0000 -0.0000
vn -0.4458 -0.8952 -0.0000
vn -0.2223 0.9688 -0.1094
vn -0.0000 -0.0000 1.0000
vn -0.0000 -0.9980 -0.0628
vn -0.0941 -0.9956 -0.0000
vn -0.0000 0.7629 -0.6465
vn -0.0000 0.9766 0.2148
vn -0.0000 -0.9962 -0.0871
vn 1.0000 -0.0000 -0.0000
vn 0.4458 -0.8952 -0.0000
vn 0.2223 0.9688 -0.1094
vn 0.0941 -0.9956 -0.0000
vn 0.1782 -0.9821 -0.0618
vt 1.000000 0.606614
vt 0.202007 0.433714
vt 0.127533 0.935697
vt 0.873602 0.606614
vt 0.000000 0.935697
vt 0.617539 0.303307
vt 0.914598 0.303307
vt 0.584157 0.901541
vt 0.329536 0.433687
vt 0.584157 0.734147
vt 0.747204 0.303307
vt 0.329536 0.369947
vt 0.584157 0.797913
vt 0.747204 0.367073
vt 0.202007 0.369974
vt 0.617539 0.367073
vt 0.747204 0.335190
vt 0.584157 0.766030
vt 0.202007 0.401844
vt 0.329536 0.401817
vt 0.617539 0.335190
vt 0.520509 0.901541
vt 0.393182 0.433674
vt 0.520509 0.823015
vt 0.673025 0.734147
vt 0.446317 0.861405
vt 0.393182 0.369934
vt 0.446317 0.797639
vt 0.673025 0.797913
vt 0.446317 0.829522
vt 0.673025 0.766030
vt 0.393182 0.401804
vt 0.201371 0.571434
vt 0.914253 0.746869
vt 0.617539 0.163052
vt 0.873602 0.746869
vt 0.828081 0.163052
vt 0.328901 0.571407
vt 0.744849 0.163052
vt 0.787065 0.163052
vt 0.102003 0.830269
vt 0.096393 0.433005
vt 0.509723 0.303307
vt 0.043521 0.830269
vt 0.055258 0.369274
vt 0.509723 0.367073
vt 0.055258 0.401144
vt 0.509723 0.335190
vt 0.456845 0.901541
vt 0.669216 0.861680
vt 0.456845 0.433661
vt 0.456845 0.816481
vt 0.584157 0.861680
vt 0.382378 0.861405
vt 0.669216 0.925446
vt 0.456845 0.369920
vt 0.382378 0.797639
vt 0.584157 0.925446
vt 0.584157 0.893563
vt 0.382378 0.829522
vt 0.669216 0.893563
vt 0.456845 0.401791
vt 0.936526 0.127533
vt 0.895335 0.909921
vt 0.201231 0.733873
vt 0.873602 0.909921
vt 0.617539 0.000000
vt 0.914598 0.127533
vt 0.936526 0.255065
vt 0.808993 0.000000
vt 0.328760 0.733846
vt 0.744849 0.000000
vt 0.914598 0.255065
vt 0.787065 0.000000
vt 0.946151 0.127533
vt 0.102003 0.733873
vt 0.000000 0.433026
vt 0.914598 0.127533
vt 0.070166 0.733873
vt 0.930394 0.510131
vt 0.000000 0.369285
vt 0.946151 0.063766
vt 0.914598 0.063766
vt 0.930394 0.446365
vt 0.946151 0.095650
vt 0.000000 0.401155
vt 0.914598 0.095650
vt 0.930394 0.478248
vt 0.914598 0.446365
vt 0.736008 0.797913
vt 0.027629 0.401150
vt 0.027629 0.369280
vt 0.914598 0.510131
vt 0.736008 0.861680
vt 0.070166 0.749697
vt 0.102003 0.761503
vt 0.027629 0.433020
vt 0.914598 0.478248
vt 0.736008 0.829796
vt 0.673025 0.797913
vt 0.456845 0.367073
vt 0.041444 0.369277
vt 0.102003 0.775317
vt 0.041444 0.433017
vt 0.041444 0.401147
vt 0.673025 0.861680
vt 0.010058 0.775317
vt 0.456845 0.303307
vt 0.673025 0.829796
vt 0.456845 0.335190
vt 0.873602 0.909921
vt 0.202007 0.306234
vt 0.127533 0.935697
vt 0.255065 0.935697
vt 0.747204 0.909921
vt 0.617539 0.430840
vt 0.747204 0.606614
vt 0.382378 0.733872
vt 0.329536 0.306207
vt 0.382378 0.901266
vt 0.747204 0.430840
vt 0.584157 0.861680
vt 0.914598 0.606614
vt 0.747204 0.398957
vt 0.584157 0.829796
vt 0.202007 0.338104
vt 0.329536 0.338077
vt 0.617539 0.398957
vt 0.318730 0.733872
vt 0.393182 0.306194
vt 0.318730 0.812398
vt 0.673025 0.861680
vt 0.446317 0.733872
vt 0.446317 0.765756
vt 0.673025 0.829796
vt 0.393182 0.338064
vt 0.787855 0.769666
vt 0.201371 0.163559
vt 0.617539 0.571095
vt 0.747204 0.769666
vt 0.833720 0.466359
vt 0.328901 0.163532
vt 0.744849 0.571095
vt 0.874736 0.466359
vt 0.096393 0.305525
vt 0.153063 0.830269
vt 0.509723 0.430840
vt 0.211544 0.830269
vt 0.055258 0.337404
vt 0.509723 0.398957
vt 0.255065 0.733872
vt 0.669216 0.989212
vt 0.456845 0.306180
vt 0.255065 0.818932
vt 0.584157 0.989212
vt 0.382378 0.733872
vt 0.584157 0.957329
vt 0.382378 0.765756
vt 0.669216 0.957329
vt 0.456845 0.338050
vt 0.936526 0.382598
vt 0.768937 0.606614
vt 0.201231 0.000027
vt 0.617539 0.734147
vt 0.914598 0.382598
vt 0.747204 0.606614
vt 0.936526 0.255065
vt 0.852808 0.303307
vt 0.328760 0.000000
vt 0.744849 0.734147
vt 0.914598 0.255065
vt 0.874736 0.303307
vt 0.946151 0.000000
vt 0.153063 0.733873
vt 0.000000 0.305545
vt 0.914598 0.000000
vt 0.184899 0.733873
vt 0.930394 0.382598
vt 0.946151 0.031883
vt 0.000000 0.337415
vt 0.914598 0.031883
vt 0.930394 0.414481
vt 0.027629 0.337409
vt 0.914598 0.382598
vt 0.736008 0.734147
vt 0.184899 0.749697
vt 0.027629 0.305539
vt 0.153063 0.761503
vt 0.914598 0.414481
vt 0.736008 0.766030
vt 0.153063 0.775317
vt 0.041444 0.305536
vt 0.041444 0.337407
vt 0.673025 0.734147
vt 0.245007 0.775317
vt 0.456845 0.430840
vt 0.673025 0.766030
vt 0.456845 0.398957
s 0
usemtl マテリアル
f 2/4/1 19/34/1 20/36/1
f 10/19/2 23/42/2 27/47/2
f 3/9/3 10/19/3 11/20/3
f 6/14/4 12/21/4 9/17/4
f 12/21/5 24/43/5 2/6/5
f 1/3/6 24/44/6 23/41/6
f 9/17/4 2/6/4 4/11/4
f 11/20/3 7/15/3 5/12/3
f 3/8/6 14/24/6 4/10/6
f 5/12/3 18/32/3 11/20/3
f 17/30/7 32/57/7 16/28/7
f 14/24/6 29/49/6 30/52/6
f 9/18/8 16/29/8 6/13/8
f 4/10/8 17/31/8 9/18/8
f 11/20/3 13/23/3 3/9/3
f 20/35/9 38/72/9 22/39/9
f 3/9/10 19/33/10 1/2/10
f 2/6/11 22/39/11 4/11/11
f 4/11/12 21/37/12 3/7/12
f 46/91/3 41/81/3 47/92/3
f 10/19/13 25/45/13 7/15/13
f 8/16/5 28/48/5 12/21/5
f 33/59/12 29/50/12 34/61/12
f 32/58/12 34/61/12 31/55/12
f 15/27/3 34/62/3 18/32/3
f 18/32/3 29/51/3 13/23/3
f 14/26/7 33/60/7 17/30/7
f 38/73/6 35/63/6 37/69/6
f 22/40/12 37/70/12 21/37/12
f 20/36/1 35/64/1 36/66/1
f 21/38/14 35/65/14 19/33/14
f 44/87/1 41/82/1 43/85/1
f 40/78/1 43/85/1 39/75/1
f 48/95/6 39/76/6 49/96/6
f 50/98/9 40/80/9 48/93/9
f 45/89/9 44/88/9 50/98/9
f 49/97/3 43/86/3 46/91/3
f 53/104/3 46/91/3 54/105/3
f 51/100/15 50/99/15 56/109/15
f 56/109/15 48/94/15 55/106/15
f 53/103/6 48/95/6 49/96/6
f 54/105/3 47/92/3 52/102/3
f 27/47/3 52/102/3 25/45/3
f 24/44/6 53/103/6 23/41/6
f 28/48/16 55/108/16 24/43/16
f 26/46/16 56/110/16 28/48/16
f 27/47/3 53/104/3 54/105/3
f 58/115/1 69/137/1 57/111/1
f 62/126/17 73/145/17 57/112/17
f 62/126/3 59/119/3 63/127/3
f 64/128/4 6/14/4 61/124/4
f 74/147/5 64/128/5 58/116/5
f 57/113/18 74/148/18 58/114/18
f 58/116/4 61/124/4 60/121/4
f 7/15/3 63/127/3 5/12/3
f 66/131/18 59/118/18 60/120/18
f 68/136/3 5/12/3 63/127/3
f 32/57/7 67/134/7 16/28/7
f 66/131/18 77/151/18 65/129/18
f 16/29/8 61/125/8 6/13/8
f 67/135/8 60/122/8 61/125/8
f 65/130/3 63/127/3 59/119/3
f 84/170/9 70/139/9 72/143/9
f 69/138/19 59/119/19 57/112/19
f 72/143/20 58/116/20 60/121/20
f 71/141/12 60/123/12 59/117/12
f 41/81/3 89/183/3 47/92/3
f 25/45/13 62/126/13 7/15/13
f 76/150/5 8/16/5 64/128/5
f 77/152/12 79/157/12 80/159/12
f 80/159/12 32/58/12 31/55/12
f 80/160/3 15/27/3 68/136/3
f 77/153/3 68/136/3 65/130/3
f 79/158/7 66/133/7 67/134/7
f 81/161/18 84/171/18 83/167/18
f 83/168/12 72/144/12 71/141/12
f 70/140/1 81/162/1 69/137/1
f 81/163/21 71/142/21 69/138/21
f 41/82/1 88/181/1 87/179/1
f 87/179/1 86/176/1 85/173/1
f 85/174/18 90/186/18 91/188/18
f 86/178/9 92/189/9 90/184/9
f 88/182/9 45/89/9 92/189/9
f 87/180/3 91/187/3 89/183/3
f 89/183/3 93/192/3 94/193/3
f 92/190/15 51/100/15 96/197/15
f 90/185/15 96/197/15 95/194/15
f 93/191/18 90/186/18 95/195/18
f 47/92/3 94/193/3 52/102/3
f 52/102/3 75/149/3 25/45/3
f 93/191/18 74/148/18 73/146/18
f 95/196/16 76/150/16 74/147/16
f 96/198/16 26/46/16 76/150/16
f 75/149/3 93/192/3 73/145/3
f 2/4/1 1/1/1 19/34/1
f 10/19/17 1/2/17 23/42/17
f 3/9/3 1/2/3 10/19/3
f 6/14/4 8/16/4 12/21/4
f 12/21/5 28/48/5 24/43/5
f 1/3/6 2/5/6 24/44/6
f 9/17/4 12/21/4 2/6/4
f 11/20/3 10/19/3 7/15/3
f 3/8/6 13/22/6 14/24/6
f 5/12/3 15/27/3 18/32/3
f 17/30/7 33/60/7 32/57/7
f 14/24/6 13/22/6 29/49/6
f 9/18/8 17/31/8 16/29/8
f 4/10/8 14/25/8 17/31/8
f 11/20/3 18/32/3 13/23/3
f 20/35/9 36/67/9 38/72/9
f 3/9/10 21/38/10 19/33/10
f 2/6/9 20/35/9 22/39/9
f 4/11/12 22/40/12 21/37/12
f 46/91/3 43/86/3 41/81/3
f 10/19/13 27/47/13 25/45/13
f 8/16/5 26/46/5 28/48/5
f 33/59/12 30/53/12 29/50/12
f 32/58/12 33/59/12 34/61/12
f 15/27/3 31/56/3 34/62/3
f 18/32/3 34/62/3 29/51/3
f 14/26/7 30/54/7 33/60/7
f 38/73/6 36/68/6 35/63/6
f 22/40/12 38/74/12 37/70/12
f 20/36/1 19/34/1 35/64/1
f 21/38/14 37/71/14 35/65/14
f 44/87/1 42/83/1 41/82/1
f 40/78/1 44/87/1 43/85/1
f 48/95/6 40/79/6 39/76/6
f 50/98/9 44/88/9 40/80/9
f 45/89/9 42/84/9 44/88/9
f 49/97/3 39/77/3 43/86/3
f 53/104/3 49/97/3 46/91/3
f 51/100/15 45/90/15 50/99/15
f 56/109/15 50/99/15 48/94/15
f 53/103/6 55/107/6 48/95/6
f 54/105/3 46/91/3 47/92/3
f 27/47/3 54/105/3 52/102/3
f 24/44/6 55/107/6 53/103/6
f 28/48/16 56/110/16 55/108/16
f 26/46/16 51/101/16 56/110/16
f 27/47/3 23/42/3 53/104/3
f 58/115/1 70/140/1 69/137/1
f 62/126/22 75/149/22 73/145/22
f 62/126/3 57/112/3 59/119/3
f 64/128/4 8/16/4 6/14/4
f 74/147/5 76/150/5 64/128/5
f 57/113/18 73/146/18 74/148/18
f 58/116/4 64/128/4 61/124/4
f 7/15/3 62/126/3 63/127/3
f 66/131/18 65/129/18 59/118/18
f 68/136/3 15/27/3 5/12/3
f 32/57/7 79/158/7 67/134/7
f 66/131/18 78/154/18 77/151/18
f 16/29/8 67/135/8 61/125/8
f 67/135/8 66/132/8 60/122/8
f 65/130/3 68/136/3 63/127/3
f 84/170/9 82/164/9 70/139/9
f 69/138/19 71/142/19 59/119/19
f 72/143/9 70/139/9 58/116/9
f 71/141/12 72/144/12 60/123/12
f 41/81/3 87/180/3 89/183/3
f 25/45/13 75/149/13 62/126/13
f 76/150/5 26/46/5 8/16/5
f 77/152/12 78/155/12 79/157/12
f 80/159/12 79/157/12 32/58/12
f 80/160/3 31/56/3 15/27/3
f 77/153/3 80/160/3 68/136/3
f 79/158/7 78/156/7 66/133/7
f 81/161/18 82/165/18 84/171/18
f 83/168/12 84/172/12 72/144/12
f 70/140/1 82/166/1 81/162/1
f 81/163/21 83/169/21 71/142/21
f 41/82/1 42/83/1 88/181/1
f 87/179/1 88/181/1 86/176/1
f 85/174/18 86/177/18 90/186/18
f 86/178/9 88/182/9 92/189/9
f 88/182/9 42/84/9 45/89/9
f 87/180/3 85/175/3 91/187/3
f 89/183/3 91/187/3 93/192/3
f 92/190/15 45/90/15 51/100/15
f 90/185/15 92/190/15 96/197/15
f 93/191/18 91/188/18 90/186/18
f 47/92/3 89/183/3 94/193/3
f 52/102/3 94/193/3 75/149/3
f 93/191/18 95/195/18 74/148/18
f 95/196/16 96/198/16 76/150/16
f 96/198/16 51/101/16 26/46/16
f 75/149/3 94/193/3 93/192/3
